<svg xmlns="http://www.w3.org/2000/svg" xmlns:xlink="http://www.w3.org/1999/xlink" width="500" zoomAndPan="magnify" viewBox="0 0 375 374.999991" height="500" preserveAspectRatio="xMidYMid meet" version="1.0"><defs><g/></defs><rect x="-37.5" width="450" fill="#ffffff" y="-37.499999" height="449.999989" fill-opacity="1"/><rect x="-37.5" width="450" fill="#ffffff" y="-37.499999" height="449.999989" fill-opacity="1"/><rect x="-37.5" width="450" fill="#fdf7f2" y="-37.499999" height="449.999989" fill-opacity="1"/><g fill="#ffffff" fill-opacity="1"><g transform="translate(182.817898, 247.823422)"><g><path d="M 114.9375 -120.375 C 114.144531 -107.800781 113.75 -96.582031 113.75 -86.71875 C 113.75 -81.5 113.921875 -77.414062 114.265625 -74.46875 L 110.34375 -74.46875 C 106.601562 -89.320312 101.785156 -100.035156 95.890625 -106.609375 C 90.003906 -113.179688 83.660156 -116.46875 76.859375 -116.46875 L 76.6875 -116.46875 L 76.6875 -19.21875 C 76.6875 -14.457031 77.164062 -11 78.125 -8.84375 C 79.09375 -6.6875 80.847656 -5.238281 83.390625 -4.5 C 85.941406 -3.769531 90 -3.40625 95.5625 -3.40625 L 95.5625 0 C 79.570312 -0.34375 67.160156 -0.515625 58.328125 -0.515625 C 50.273438 -0.515625 38.597656 -0.34375 23.296875 0 L 23.296875 -3.40625 C 28.847656 -3.40625 32.898438 -3.769531 35.453125 -4.5 C 38.003906 -5.238281 39.757812 -6.6875 40.71875 -8.84375 C 41.6875 -11 42.171875 -14.457031 42.171875 -19.21875 L 42.171875 -116.46875 L 42 -116.46875 C 35.082031 -116.46875 28.703125 -113.207031 22.859375 -106.6875 C 17.023438 -100.175781 12.238281 -89.4375 8.5 -74.46875 L 4.59375 -74.46875 C 4.925781 -77.414062 5.09375 -81.5 5.09375 -86.71875 C 5.09375 -96.582031 4.695312 -107.800781 3.90625 -120.375 C 14.675781 -120.039062 33.210938 -119.875 59.515625 -119.875 C 85.691406 -119.875 104.164062 -120.039062 114.9375 -120.375 Z M 114.9375 -120.375 "/></g></g></g><g fill="#ffffff" fill-opacity="1"><g transform="translate(94.683894, 247.823348)"><g><path d="M 126.84375 -6.796875 C 123.445312 -3.398438 119.707031 -1.023438 115.625 0.328125 C 111.539062 1.691406 106.78125 2.375 101.34375 2.375 C 93.519531 2.375 87.453125 0.988281 83.140625 -1.78125 C 78.835938 -4.5625 76.175781 -9.296875 75.15625 -15.984375 L 72.609375 -32.984375 C 71.472656 -40.921875 69.910156 -46.925781 67.921875 -51 C 65.941406 -55.082031 62.96875 -57.125 59 -57.125 L 51.34375 -57.125 L 51.34375 -18.015625 C 51.34375 -13.710938 51.65625 -10.597656 52.28125 -8.671875 C 52.90625 -6.742188 54.007812 -5.4375 55.59375 -4.75 C 57.1875 -4.070312 59.796875 -3.625 63.421875 -3.40625 L 63.421875 0 C 56.847656 -0.34375 47.382812 -0.515625 35.03125 -0.515625 C 21.3125 -0.515625 11.222656 -0.34375 4.765625 0 L 4.765625 -3.40625 C 8.390625 -3.625 11.019531 -4.070312 12.65625 -4.75 C 14.300781 -5.4375 15.40625 -6.742188 15.96875 -8.671875 C 16.539062 -10.597656 16.828125 -13.710938 16.828125 -18.015625 L 16.828125 -102.359375 C 16.828125 -106.660156 16.515625 -109.773438 15.890625 -111.703125 C 15.273438 -113.628906 14.171875 -114.929688 12.578125 -115.609375 C 10.992188 -116.296875 8.390625 -116.753906 4.765625 -116.984375 L 4.765625 -120.375 C 11.222656 -120.039062 20.96875 -119.875 34 -119.875 L 53.5625 -120.046875 C 55.820312 -120.160156 58.425781 -120.21875 61.375 -120.21875 C 78.601562 -120.21875 91.441406 -117.78125 99.890625 -112.90625 C 108.335938 -108.03125 112.5625 -100.601562 112.5625 -90.625 C 112.5625 -82.125 109.382812 -74.867188 103.03125 -68.859375 C 96.6875 -62.847656 86.035156 -59.164062 71.078125 -57.8125 C 82.640625 -57.019531 91.363281 -54.835938 97.25 -51.265625 C 103.144531 -47.691406 106.773438 -42.445312 108.140625 -35.53125 L 111.703125 -17.859375 C 112.503906 -13.660156 113.46875 -10.765625 114.59375 -9.171875 C 115.726562 -7.585938 117.316406 -6.796875 119.359375 -6.796875 C 121.398438 -6.796875 123.160156 -7.535156 124.640625 -9.015625 Z M 60.53125 -116.984375 C 57.925781 -116.984375 55.96875 -116.582031 54.65625 -115.78125 C 53.351562 -114.988281 52.472656 -113.570312 52.015625 -111.53125 C 51.566406 -109.5 51.34375 -106.441406 51.34375 -102.359375 L 51.34375 -60.53125 L 55.9375 -60.53125 C 63.988281 -60.53125 69.488281 -62.992188 72.4375 -67.921875 C 75.382812 -72.859375 76.859375 -79.800781 76.859375 -88.75 C 76.859375 -98.050781 75.582031 -105.082031 73.03125 -109.84375 C 70.476562 -114.601562 66.3125 -116.984375 60.53125 -116.984375 Z M 60.53125 -116.984375 "/></g></g></g><path fill="#fdf7f2" d="M 110.277344 174.414062 L 272.503906 174.414062 L 272.503906 200.125 L 110.277344 200.125 L 110.277344 174.414062 " fill-opacity="1" fill-rule="nonzero"/><g fill="#ffffff" fill-opacity="1"><g transform="translate(121.797731, 191.901322)"><g><path d="M 1.125 0 L 1.125 -9.34375 L 4.28125 -9.34375 C 5.007812 -9.34375 5.609375 -9.21875 6.078125 -8.96875 C 6.546875 -8.71875 6.894531 -8.375 7.125 -7.9375 C 7.351562 -7.507812 7.46875 -7.019531 7.46875 -6.46875 C 7.46875 -5.851562 7.320312 -5.316406 7.03125 -4.859375 C 6.75 -4.398438 6.3125 -4.066406 5.71875 -3.859375 L 7.828125 0 L 6.515625 0 L 4.546875 -3.65625 C 4.460938 -3.65625 4.382812 -3.65625 4.3125 -3.65625 L 2.265625 -3.65625 L 2.265625 0 Z M 2.265625 -4.671875 L 4.265625 -4.671875 C 5.015625 -4.671875 5.546875 -4.832031 5.859375 -5.15625 C 6.179688 -5.476562 6.34375 -5.914062 6.34375 -6.46875 C 6.34375 -7.039062 6.179688 -7.492188 5.859375 -7.828125 C 5.546875 -8.171875 5.007812 -8.34375 4.25 -8.34375 L 2.265625 -8.34375 Z M 2.265625 -4.671875 "/></g></g></g><g fill="#ffffff" fill-opacity="1"><g transform="translate(132.619377, 191.901322)"><g><path d="M 2.265625 -9.34375 L 2.265625 0 L 1.125 0 L 1.125 -9.34375 Z M 2.265625 -9.34375 "/></g></g></g><g fill="#ffffff" fill-opacity="1"><g transform="translate(138.629461, 191.901322)"><g><path d="M 1.125 0 L 1.125 -9.34375 L 6.765625 -9.34375 L 6.765625 -8.34375 L 2.265625 -8.34375 L 2.265625 -5.1875 L 6.46875 -5.1875 L 6.46875 -4.171875 L 2.265625 -4.171875 L 2.265625 -1 L 6.84375 -1 L 6.84375 0 Z M 1.125 0 "/></g></g></g><g fill="#ffffff" fill-opacity="1"><g transform="translate(148.922566, 191.901322)"><g><path d="M 1.125 0 L 1.125 -9.34375 L 4.28125 -9.34375 C 5.007812 -9.34375 5.609375 -9.21875 6.078125 -8.96875 C 6.546875 -8.71875 6.894531 -8.375 7.125 -7.9375 C 7.351562 -7.507812 7.46875 -7.019531 7.46875 -6.46875 C 7.46875 -5.851562 7.320312 -5.316406 7.03125 -4.859375 C 6.75 -4.398438 6.3125 -4.066406 5.71875 -3.859375 L 7.828125 0 L 6.515625 0 L 4.546875 -3.65625 C 4.460938 -3.65625 4.382812 -3.65625 4.3125 -3.65625 L 2.265625 -3.65625 L 2.265625 0 Z M 2.265625 -4.671875 L 4.265625 -4.671875 C 5.015625 -4.671875 5.546875 -4.832031 5.859375 -5.15625 C 6.179688 -5.476562 6.34375 -5.914062 6.34375 -6.46875 C 6.34375 -7.039062 6.179688 -7.492188 5.859375 -7.828125 C 5.546875 -8.171875 5.007812 -8.34375 4.25 -8.34375 L 2.265625 -8.34375 Z M 2.265625 -4.671875 "/></g></g></g><g fill="#ffffff" fill-opacity="1"><g transform="translate(159.744212, 191.901322)"><g><path d="M 1.515625 0 L 0.328125 0 L 3.765625 -9.34375 L 4.921875 -9.34375 L 8.359375 0 L 7.171875 0 L 6.234375 -2.640625 L 2.453125 -2.640625 Z M 2.8125 -3.65625 L 5.875 -3.65625 L 4.375 -7.859375 L 4.3125 -7.859375 Z M 2.8125 -3.65625 "/></g></g></g><g fill="#ffffff" fill-opacity="1"><g transform="translate(171.039733, 191.901322)"><g/></g></g><g fill="#ffffff" fill-opacity="1"><g transform="translate(177.26853, 191.901322)"><g><path d="M 0.625 -8.34375 L 0.625 -9.34375 L 7.625 -9.34375 L 7.625 -8.34375 L 4.6875 -8.34375 L 4.6875 0 L 3.5625 0 L 3.5625 -8.34375 Z M 0.625 -8.34375 "/></g></g></g><g fill="#ffffff" fill-opacity="1"><g transform="translate(188.126639, 191.901322)"><g><path d="M 1.125 0 L 1.125 -9.34375 L 6.765625 -9.34375 L 6.765625 -8.34375 L 2.265625 -8.34375 L 2.265625 -5.1875 L 6.46875 -5.1875 L 6.46875 -4.171875 L 2.265625 -4.171875 L 2.265625 -1 L 6.84375 -1 L 6.84375 0 Z M 1.125 0 "/></g></g></g><g fill="#ffffff" fill-opacity="1"><g transform="translate(198.419741, 191.901322)"><g><path d="M 1.671875 -9.34375 L 4.09375 -5.453125 L 4.15625 -5.453125 L 6.5625 -9.34375 L 7.90625 -9.34375 L 4.96875 -4.671875 L 7.90625 0 L 6.5625 0 L 4.15625 -3.8125 L 4.09375 -3.8125 L 1.671875 0 L 0.34375 0 L 3.359375 -4.671875 L 0.34375 -9.34375 Z M 1.671875 -9.34375 "/></g></g></g><g fill="#ffffff" fill-opacity="1"><g transform="translate(209.277844, 191.901322)"><g><path d="M 0.625 -8.34375 L 0.625 -9.34375 L 7.625 -9.34375 L 7.625 -8.34375 L 4.6875 -8.34375 L 4.6875 0 L 3.5625 0 L 3.5625 -8.34375 Z M 0.625 -8.34375 "/></g></g></g><g fill="#ffffff" fill-opacity="1"><g transform="translate(220.135947, 191.901322)"><g><path d="M 2.265625 -9.34375 L 2.265625 0 L 1.125 0 L 1.125 -9.34375 Z M 2.265625 -9.34375 "/></g></g></g><g fill="#ffffff" fill-opacity="1"><g transform="translate(226.146028, 191.901322)"><g><path d="M 1.125 0 L 1.125 -9.34375 L 2.265625 -9.34375 L 2.265625 -1 L 6.609375 -1 L 6.609375 0 Z M 1.125 0 "/></g></g></g><g fill="#ffffff" fill-opacity="1"><g transform="translate(235.983497, 191.901322)"><g><path d="M 1.125 0 L 1.125 -9.34375 L 6.765625 -9.34375 L 6.765625 -8.34375 L 2.265625 -8.34375 L 2.265625 -5.1875 L 6.46875 -5.1875 L 6.46875 -4.171875 L 2.265625 -4.171875 L 2.265625 -1 L 6.84375 -1 L 6.84375 0 Z M 1.125 0 "/></g></g></g><g fill="#ffffff" fill-opacity="1"><g transform="translate(246.276599, 191.901322)"><g><path d="M 6.234375 -7 C 6.179688 -7.46875 5.957031 -7.828125 5.5625 -8.078125 C 5.175781 -8.335938 4.703125 -8.46875 4.140625 -8.46875 C 3.515625 -8.46875 3.015625 -8.316406 2.640625 -8.015625 C 2.265625 -7.722656 2.078125 -7.359375 2.078125 -6.921875 C 2.078125 -6.578125 2.179688 -6.300781 2.390625 -6.09375 C 2.597656 -5.894531 2.84375 -5.738281 3.125 -5.625 C 3.40625 -5.507812 3.660156 -5.421875 3.890625 -5.359375 L 4.828125 -5.109375 C 5.078125 -5.046875 5.347656 -4.957031 5.640625 -4.84375 C 5.941406 -4.726562 6.226562 -4.570312 6.5 -4.375 C 6.78125 -4.1875 7.007812 -3.941406 7.1875 -3.640625 C 7.375 -3.335938 7.46875 -2.96875 7.46875 -2.53125 C 7.46875 -2.03125 7.332031 -1.578125 7.0625 -1.171875 C 6.800781 -0.765625 6.414062 -0.4375 5.90625 -0.1875 C 5.40625 0.0507812 4.800781 0.171875 4.09375 0.171875 C 3.082031 0.171875 2.28125 -0.0664062 1.6875 -0.546875 C 1.101562 -1.023438 0.785156 -1.644531 0.734375 -2.40625 L 1.890625 -2.40625 C 1.921875 -2.050781 2.039062 -1.757812 2.25 -1.53125 C 2.457031 -1.300781 2.722656 -1.128906 3.046875 -1.015625 C 3.367188 -0.910156 3.71875 -0.859375 4.09375 -0.859375 C 4.519531 -0.859375 4.90625 -0.925781 5.25 -1.0625 C 5.59375 -1.207031 5.863281 -1.40625 6.0625 -1.65625 C 6.257812 -1.914062 6.359375 -2.210938 6.359375 -2.546875 C 6.359375 -2.859375 6.269531 -3.113281 6.09375 -3.3125 C 5.925781 -3.507812 5.703125 -3.664062 5.421875 -3.78125 C 5.140625 -3.90625 4.832031 -4.015625 4.5 -4.109375 L 3.359375 -4.4375 C 2.628906 -4.644531 2.050781 -4.941406 1.625 -5.328125 C 1.195312 -5.722656 0.984375 -6.234375 0.984375 -6.859375 C 0.984375 -7.378906 1.125 -7.832031 1.40625 -8.21875 C 1.695312 -8.613281 2.082031 -8.921875 2.5625 -9.140625 C 3.039062 -9.359375 3.578125 -9.46875 4.171875 -9.46875 C 4.773438 -9.46875 5.3125 -9.359375 5.78125 -9.140625 C 6.25 -8.929688 6.617188 -8.640625 6.890625 -8.265625 C 7.171875 -7.898438 7.316406 -7.476562 7.328125 -7 Z M 6.234375 -7 "/></g></g></g><g fill="#ffffff" fill-opacity="1"><g transform="translate(257.077186, 191.901322)"><g/></g></g></svg>